<svg width="1200" height="640" viewBox="0 0 1200 640" fill="none" xmlns="http://www.w3.org/2000/svg">
  <rect width="1200" height="640" rx="32" fill="#0B1224"/>
  <rect x="40" y="40" width="1120" height="560" rx="26" fill="#0F172A" stroke="#23304F" stroke-width="2"/>
  <rect x="84" y="96" width="520" height="132" rx="18" fill="#111C36"/>
  <rect x="644" y="96" width="472" height="132" rx="18" fill="#0EA5E9" fill-opacity="0.14" stroke="#38BDF8" stroke-dasharray="7 8"/>
  <rect x="84" y="260" width="1032" height="280" rx="22" fill="#0D172F" stroke="#1E2E4C"/>
  <rect x="112" y="288" width="320" height="48" rx="12" fill="#132143"/>
  <rect x="112" y="356" width="280" height="14" rx="7" fill="#1E2F52"/>
  <rect x="112" y="384" width="240" height="14" rx="7" fill="#1E2F52"/>
  <rect x="112" y="412" width="180" height="14" rx="7" fill="#1E2F52"/>
  <rect x="112" y="456" width="160" height="40" rx="12" fill="#22D3EE" fill-opacity="0.8"/>
  <rect x="296" y="456" width="160" height="40" rx="12" fill="#A78BFA" fill-opacity="0.7"/>
  <rect x="520" y="288" width="204" height="220" rx="18" fill="#0EA5E9" fill-opacity="0.12" stroke="#22D3EE"/>
  <rect x="756" y="288" width="324" height="220" rx="18" fill="#101C36" stroke="#1E2E4C"/>
  <circle cx="760" cy="146" r="30" fill="#F472B6"/>
  <circle cx="840" cy="146" r="30" fill="#60A5FA"/>
  <circle cx="920" cy="146" r="30" fill="#22C55E"/>
  <text x="112" y="136" fill="#99B3DF" font-family="Inter" font-size="18" font-weight="700">Day 07 · Story Drop</text>
  <text x="112" y="170" fill="#A5B8E1" font-family="Inter" font-size="14" font-weight="500">CG 過場＋禮品解鎖的完整視覺</text>
</svg>
