<svg width="900" height="760" viewBox="0 0 900 760" fill="none" xmlns="http://www.w3.org/2000/svg">
  <defs>
    <linearGradient id="bg" x1="0" y1="0" x2="1" y2="1">
      <stop stop-color="#0F172A"/>
      <stop offset="1" stop-color="#1E0B2B"/>
    </linearGradient>
  </defs>
  <rect width="900" height="760" rx="40" fill="url(#bg)"/>
  <rect x="36" y="48" width="828" height="660" rx="28" fill="#0B1224" stroke="#23304F" stroke-width="2"/>
  <rect x="74" y="100" width="760" height="56" rx="14" fill="#101a34" stroke="#263657"/>
  <circle cx="104" cy="128" r="9" fill="#60A5FA"/>
  <circle cx="130" cy="128" r="9" fill="#F472B6"/>
  <circle cx="156" cy="128" r="9" fill="#22C55E"/>
  <rect x="96" y="188" width="708" height="210" rx="22" fill="#0F172A" stroke="#20304E"/>
  <rect x="96" y="424" width="708" height="250" rx="22" fill="#0F172A" stroke="#20304E"/>
  <rect x="122" y="214" width="200" height="38" rx="10" fill="#132143"/>
  <rect x="122" y="268" width="280" height="12" rx="6" fill="#1F2C4C"/>
  <rect x="122" y="294" width="220" height="12" rx="6" fill="#1F2C4C"/>
  <rect x="122" y="320" width="180" height="12" rx="6" fill="#1F2C4C"/>
  <rect x="122" y="350" width="150" height="34" rx="12" fill="#38BDF8" fill-opacity="0.8"/>
  <rect x="296" y="350" width="150" height="34" rx="12" fill="#60A5FA" fill-opacity="0.6"/>
  <rect x="470" y="350" width="150" height="34" rx="12" fill="#A78BFA" fill-opacity="0.6"/>
  <rect x="122" y="454" width="360" height="20" rx="10" fill="#132143"/>
  <rect x="122" y="488" width="440" height="12" rx="6" fill="#132143"/>
  <rect x="122" y="512" width="380" height="12" rx="6" fill="#132143"/>
  <rect x="122" y="536" width="320" height="12" rx="6" fill="#132143"/>
  <rect x="122" y="560" width="240" height="12" rx="6" fill="#132143"/>
  <rect x="574" y="454" width="210" height="176" rx="20" fill="#0EA5E9" fill-opacity="0.12" stroke="#22D3EE" stroke-dasharray="6 8"/>
  <text x="122" y="204" fill="#8CA3D4" font-family="Inter" font-size="16" font-weight="600">行動版編輯界面</text>
  <text x="590" y="492" fill="#8DD5F7" font-family="Inter" font-size="14" font-weight="700">即時預覽</text>
</svg>
