<svg width="1400" height="860" viewBox="0 0 1400 860" fill="none" xmlns="http://www.w3.org/2000/svg">
  <defs>
    <linearGradient id="bg" x1="0" y1="0" x2="1" y2="1">
      <stop stop-color="#0B1530"/>
      <stop offset="1" stop-color="#1E0B2B"/>
    </linearGradient>
    <linearGradient id="panel" x1="0" y1="0" x2="1" y2="1">
      <stop stop-color="#5EEAD4" stop-opacity="0.9"/>
      <stop offset="1" stop-color="#60A5FA" stop-opacity="0.8"/>
    </linearGradient>
  </defs>
  <rect width="1400" height="860" rx="48" fill="url(#bg)"/>
  <rect x="48" y="48" width="1304" height="764" rx="32" fill="#0F172A" stroke="#23304F" stroke-width="2"/>
  <rect x="96" y="118" width="1200" height="60" rx="16" fill="#111B33" stroke="#2F3D5C"/>
  <circle cx="134" cy="148" r="10" fill="#F472B6"/>
  <circle cx="164" cy="148" r="10" fill="#60A5FA"/>
  <circle cx="194" cy="148" r="10" fill="#10B981"/>
  <rect x="108" y="210" width="220" height="520" rx="22" fill="#0A1228" stroke="#1F2C4C"/>
  <rect x="360" y="210" width="498" height="260" rx="22" fill="#0A1228" stroke="#1F2C4C"/>
  <rect x="360" y="506" width="498" height="224" rx="22" fill="#0A1228" stroke="#1F2C4C"/>
  <rect x="894" y="210" width="260" height="520" rx="22" fill="#0A1228" stroke="#1F2C4C"/>
  <rect x="126" y="240" width="184" height="48" rx="12" fill="#132143"/>
  <rect x="126" y="306" width="184" height="48" rx="12" fill="#132143"/>
  <rect x="126" y="372" width="184" height="48" rx="12" fill="#132143"/>
  <rect x="126" y="438" width="184" height="48" rx="12" fill="#132143"/>
  <rect x="126" y="504" width="184" height="48" rx="12" fill="#132143"/>
  <rect x="126" y="570" width="184" height="48" rx="12" fill="#132143"/>
  <rect x="380" y="240" width="220" height="38" rx="10" fill="#1E2C52"/>
  <rect x="380" y="292" width="420" height="12" rx="6" fill="#233761"/>
  <rect x="380" y="318" width="360" height="12" rx="6" fill="#233761"/>
  <rect x="380" y="344" width="300" height="12" rx="6" fill="#233761"/>
  <rect x="380" y="398" width="140" height="40" rx="12" fill="#0EA5E9" fill-opacity="0.9"/>
  <rect x="530" y="398" width="140" height="40" rx="12" fill="#22D3EE" fill-opacity="0.6"/>
  <rect x="680" y="398" width="140" height="40" rx="12" fill="#60A5FA" fill-opacity="0.6"/>
  <rect x="380" y="538" width="360" height="24" rx="12" fill="#1E293B"/>
  <rect x="380" y="576" width="440" height="16" rx="8" fill="#1E293B"/>
  <rect x="380" y="608" width="380" height="16" rx="8" fill="#1E293B"/>
  <rect x="380" y="640" width="320" height="16" rx="8" fill="#1E293B"/>
  <rect x="380" y="672" width="220" height="16" rx="8" fill="#1E293B"/>
  <rect x="914" y="248" width="220" height="56" rx="14" fill="url(#panel)" opacity="0.9"/>
  <rect x="914" y="330" width="220" height="160" rx="14" fill="#0B1226" stroke="#1F2C4C"/>
  <rect x="914" y="518" width="220" height="152" rx="14" fill="#0B1226" stroke="#1F2C4C"/>
  <text x="122" y="222" fill="#8CA3D4" font-family="Inter" font-size="16" font-weight="600">Day Cards</text>
  <text x="380" y="226" fill="#9FB4E0" font-family="Inter" font-size="16" font-weight="600">Editor</text>
  <text x="914" y="228" fill="#9FB4E0" font-family="Inter" font-size="16" font-weight="600">Preview</text>
  <text x="984" y="284" fill="#0F172A" font-family="Inter" font-size="15" font-weight="700">Save &amp; Share</text>
</svg>
